<?xml version="1.0" encoding="utf-8"?>
<!-- Generator: Adobe Illustrator 18.0.0, SVG Export Plug-In . SVG Version: 6.00 Build 0)  -->
<!DOCTYPE svg PUBLIC "-//W3C//DTD SVG 1.1//EN" "http://www.w3.org/Graphics/SVG/1.1/DTD/svg11.dtd">
<svg version="1.1" id="Layer_1" xmlns="http://www.w3.org/2000/svg" xmlns:xlink="http://www.w3.org/1999/xlink" x="0px" y="0px"
	 viewBox="0 0 183.3 182.7" enable-background="new 0 0 183.3 182.7" xml:space="preserve">
<g>
	<polygon fill="#FFFFFF" points="88.8,177.4 66.1,177.4 44.7,5.7 67.4,5.7 	"/>
	<rect x="120.6" y="46.7" fill="#FFFFFF" width="11.8" height="89.6"/>
	<polygon fill="#FFFFFF" points="15,136.4 3.3,136.4 44.4,6.3 56.2,6.3 	"/>
	<rect x="98.3" y="46.7" fill="#FFFFFF" width="11.8" height="89.6"/>
	<path fill="#FFFFFF" d="M165,98.2c-0.2,0.8-0.9,1.3-1.8,1.3c-1,0-1.8-0.8-1.8-1.7s0.8-1.7,1.8-1.7c0.8,0,1.5,0.5,1.7,1.2h15.5
		l-13.6-5.8l-15.8,2.4c-0.3-0.4-0.7-0.7-1.3-0.7h-0.6c-0.6,0-1.1,0.3-1.3,0.8l-9.6-0.9l0,0l-70.9,2.1l-45.5,1.2l-1.9-2l-3.6,7.6
		l3.4-2l47.9,1.5l70.6,0.4l0,0l9.6-1.2c0.2,0.5,0.7,0.9,1.4,0.9h0.6c0.4,0,0.8-0.2,1-0.4c2.1,0.3,16.1,2.8,16.1,2.8l13.5-6H165z"/>
</g>
</svg>
