<?xml version="1.0" encoding="utf-8"?>
<!-- Generator: Adobe Illustrator 13.0.2, SVG Export Plug-In  -->
<!DOCTYPE svg PUBLIC "-//W3C//DTD SVG 1.1//EN" "http://www.w3.org/Graphics/SVG/1.1/DTD/svg11.dtd" [
	<!ENTITY ns_flows "http://ns.adobe.com/Flows/1.0/">
]>
<svg version="1.1"
	 xmlns="http://www.w3.org/2000/svg" xmlns:xlink="http://www.w3.org/1999/xlink" xmlns:a="http://ns.adobe.com/AdobeSVGViewerExtensions/3.0/"
	 x="0px" y="0px" fill="white" viewBox="-0.014 0.028 540 525" enable-background="new -0.014 0.028 540 525"
	 xml:space="preserve">
<defs>
</defs>
<path fill-rule="evenodd" clip-rule="evenodd" d="M420,135V30c0-16.569-13.433-30-30-30H30C13.431,0,0,13.431,0,30V495
	c0,16.567,13.431,30,30,30h360c16.567,0,30-13.433,30-30V390h-90V420c0,8.284-6.715,15-15,15H105c-8.284,0-15-6.716-15-15V105
	c0-8.284,6.716-15,15-15h210c8.285,0,15,6.716,15,15v30H420z"/>
<path d="M292.5,119.999H127.501c-4.143,0-7.5,3.357-7.5,7.5V285c0,4.143,3.357,7.499,7.5,7.499h101.25c2.071,0,3.75,1.68,3.75,3.751
	v44.999c0,2.071-1.679,3.75-3.75,3.75H191.25c-2.071,0-3.75-1.679-3.75-3.75V322.5h-67.499V397.5c0,4.142,3.357,7.5,7.5,7.5H292.5
	c4.143,0,7.5-3.358,7.5-7.5V240c0-4.143-3.357-7.5-7.5-7.5H191.25c-2.071,0-3.75-1.679-3.75-3.75l-0.001-45
	c0-2.071,1.679-3.75,3.75-3.75h37.501c2.071,0,3.75,1.679,3.75,3.75l0.001,18.75H300v-75.001
	C300,123.356,296.643,119.999,292.5,119.999z"/>
<polygon points="420,300 420,360 330,360 330,165 420,165 420,225 450,225 450,0 540,0 540,525 450,525 450,300 "/>
</svg>
