<?xml version="1.0" encoding="utf-8"?>
<!-- Generator: Adobe Illustrator 24.0.2, SVG Export Plug-In . SVG Version: 6.00 Build 0)  -->
<svg version="1.1" id="Layer_1" xmlns="http://www.w3.org/2000/svg" xmlns:xlink="http://www.w3.org/1999/xlink" x="0px" y="0px"
	 viewBox="0 0 800 800" style="enable-background:new 0 0 800 800;" xml:space="preserve">
<style type="text/css">
	.st0{display:none;fill:#F5F5F5;}
	.st1{fill:#232323;}
	.st2{fill:#232323;}
</style>
<g>
	<path class="st0" d="M400,799.91c-131.8,0-263.61-0.02-395.41,0.09C0.84,800,0,799.16,0,795.41C0.1,531.8,0.1,268.2,0,4.59
		C0,0.84,0.84,0,4.59,0C268.2,0.1,531.8,0.1,795.41,0c3.75,0,4.59,0.84,4.59,4.59c-0.1,263.6-0.1,527.21,0,790.81
		c0,3.75-0.84,4.6-4.59,4.59C663.61,799.89,531.8,799.91,400,799.91z M445.29,86.77c-0.93-0.24-1.37-0.48-1.8-0.44
		c-0.81,0.08-1.61,0.3-2.41,0.48c-15.23,3.41-27.71,11.77-39.17,21.89c-17.93,15.85-33,34.29-47.53,53.16
		c-10.12,13.14-22.02,23.74-37.11,31.03c-26.19,12.67-47.91,30.45-61.87,56.65c-2.66,4.99-6.93,8.47-12.2,10.61
		c-6.61,2.68-13.23,5.32-19.85,7.97c-42.78,17.14-76.7,44.21-96.45,86.84c-13.04,28.16-11.56,55.71,7.7,80.3
		c20.62,26.34,49.4,41.42,80.41,52.33c4.71,1.66,6.96,4.01,7.05,8.77c0.14,7.5,0.32,14.99,0.46,22.49
		c0.52,26.6,3.39,52.76,14.36,77.43c3.89,8.74,7.31,17.73,13.64,25.49c0.98-2.62-0.58-4.46-0.85-6.5
		c-3.97-30.11-5.76-60.3-3.96-90.66c0.37-6.24,1.9-7.27,7.61-4.58c4.95,2.34,9.57,5.34,14.75,7.24
		c32.78,12.02,66.96,13.26,101.31,13.01c18.82-0.14,37.5-2.87,56.3-3.39c3.47-0.1,8.31-2.1,10.21,1.07
		c2.23,3.71-1.56,7.45-3.66,10.73c-18.88,29.42-41.4,55.86-66.15,80.46c-2.36,2.34-4.64,4.77-6.96,7.15
		c12.09-3.71,22.94-9.35,33.1-16.22c33.94-22.96,59.27-53.69,79.3-89.03c2.29-4.03,5.27-6.69,9.1-8.77
		c9.18-4.99,19.12-8.97,27.01-15.83c11.88-10.32,26.23-13.52,40.87-16.68c28.44-6.14,55.53-15.8,79.57-32.63
		c19.28-13.49,36.09-29.52,48.05-50.02c12.51-21.43,8.65-40.13-10.82-55.31c-8.65-6.75-18.61-10.88-28.73-14.71
		c-18.24-6.9-37.33-10.1-56.51-12.89c-4.66-0.68-5.43-2-2.96-6.05c3.86-6.34,5.98-13.22,7.7-20.36c1.95-8.11,2.27-16.44,3.75-24.61
		c0.65-3.59,2.4-4.85,5.79-4.48c3.83,0.41,7.46,1.56,11.05,2.87c9.41,3.43,18.82,6.88,28.39,10.38c0.6-2.19-0.41-3.69-1.39-5.24
		c-3.98-6.29-9.4-11.18-15.13-15.78c-8.49-6.81-18.15-11.7-27.57-16.99c-3.61-2.03-7.92-3.97-9.39-7.91
		c-3.01-8.09-8-14.91-12.56-22.04c-3.56-5.55-5.52-11.55-6.24-18.15c-1.86-17.03-1.94-34.21-4.66-51.17
		c-2.37-14.76-6.79-28.71-14.65-41.47c-1.21-1.96-2.16-4.43-5.26-4.99c0,0.92-0.01,1.55,0,2.17c0.65,27.81,1.27,55.62,2.01,83.43
		c0.11,3.92-0.71,4.68-4.74,3.5c-13.06-3.81-26.04-7.97-39.5-10.31c-21.78-3.79-43.78-3.73-65.75-3.38
		c-14.14,0.22-28.33-0.21-42.39,1.8c-2.9,0.41-6.59,2.36-8.36-0.15c-1.93-2.74,0.91-5.87,2.42-8.61c0.16-0.29,0.32-0.58,0.51-0.86
		c14.81-22.83,32.05-43.72,50.65-63.53C436.42,97.37,441.26,92.62,445.29,86.77z"/>
	<path class="st1" d="M445.29,86.77c-4.03,5.84-8.87,10.6-13.48,15.51c-18.6,19.81-35.85,40.7-50.65,63.53
		c-0.18,0.28-0.34,0.57-0.51,0.86c-1.51,2.74-4.35,5.87-2.42,8.61c1.77,2.51,5.46,0.56,8.36,0.15c14.06-2.01,28.26-1.58,42.39-1.8
		c21.97-0.35,43.97-0.41,65.75,3.38c13.46,2.34,26.44,6.5,39.5,10.31c4.04,1.18,4.85,0.42,4.74-3.5
		c-0.75-27.81-1.36-55.62-2.01-83.43c-0.01-0.63,0-1.25,0-2.17c3.1,0.56,4.05,3.03,5.26,4.99c7.87,12.76,12.29,26.71,14.65,41.47
		c2.72,16.97,2.8,34.14,4.66,51.17c0.72,6.6,2.68,12.59,6.24,18.15c4.56,7.12,9.55,13.94,12.56,22.04c1.47,3.94,5.78,5.89,9.39,7.91
		c9.42,5.29,19.08,10.18,27.57,16.99c5.74,4.6,11.15,9.5,15.13,15.78c0.98,1.55,1.98,3.04,1.39,5.24
		c-9.57-3.5-18.98-6.95-28.39-10.38c-3.59-1.31-7.23-2.46-11.05-2.87c-3.39-0.36-5.14,0.9-5.79,4.48c-1.48,8.17-1.8,16.5-3.75,24.61
		c-1.72,7.14-3.84,14.02-7.7,20.36c-2.47,4.06-1.7,5.37,2.96,6.05c19.18,2.79,38.27,5.99,56.51,12.89
		c10.12,3.83,20.08,7.96,28.73,14.71c19.47,15.18,23.32,33.89,10.82,55.31c-11.96,20.5-28.77,36.53-48.05,50.02
		c-24.05,16.83-51.13,26.5-79.57,32.63c-14.64,3.16-28.99,6.36-40.87,16.68c-7.89,6.86-17.83,10.84-27.01,15.83
		c-3.82,2.08-6.81,4.73-9.1,8.77c-20.03,35.34-45.36,66.07-79.3,89.03c-10.16,6.87-21.01,12.51-33.1,16.22
		c2.32-2.39,4.6-4.81,6.96-7.15c24.75-24.6,47.27-51.04,66.15-80.46c2.11-3.28,5.89-7.02,3.66-10.73c-1.9-3.17-6.74-1.16-10.21-1.07
		c-18.8,0.52-37.48,3.26-56.3,3.39c-34.35,0.25-68.53-0.99-101.31-13.01c-5.17-1.9-9.8-4.9-14.75-7.24
		c-5.7-2.69-7.24-1.66-7.61,4.58c-1.8,30.35-0.01,60.55,3.96,90.66c0.27,2.04,1.83,3.88,0.85,6.5c-6.33-7.77-9.75-16.75-13.64-25.49
		c-10.98-24.67-13.85-50.83-14.36-77.43c-0.15-7.5-0.32-14.99-0.46-22.49c-0.09-4.76-2.34-7.11-7.05-8.77
		c-31.01-10.91-59.79-25.99-80.41-52.33c-19.26-24.59-20.74-52.15-7.7-80.3c19.75-42.63,53.67-69.7,96.45-86.84
		c6.62-2.65,13.24-5.29,19.85-7.97c5.27-2.14,9.54-5.62,12.2-10.61c13.96-26.19,35.68-43.98,61.87-56.65
		c15.09-7.3,26.98-17.89,37.11-31.03c14.53-18.87,29.6-37.31,47.53-53.16c11.45-10.13,23.94-18.48,39.17-21.89
		c0.8-0.18,1.6-0.41,2.41-0.48C443.92,86.29,444.36,86.53,445.29,86.77z M353.7,311.84c1.98-2.53,4.5-3.48,6.93-4.46
		c25.93-10.43,52.51-8.78,79.06-3.52c15.72,3.11,30.21,9.99,44.59,16.96c7.31,3.55,14.54,7.37,22.49,9.42
		c2.73,0.7,4.78,0.5,5.76-2.77c5.85-19.42,10.59-39.09,14.53-58.98c0.99-4.98-1-6.99-5.58-7.83c-6.54-1.2-13.08-2.3-19.73-2.62
		c-30.81-1.5-61.62-1.43-92.43-0.24c-24.27,0.93-48.5,2.38-72.44,7.04c-5.42,1.05-8.9,3.45-11.51,8.25
		c-11.67,21.53-20.14,44.48-30.04,66.8c-1.41,3.18-0.01,5.13,2.21,7.35c24.9,24.89,55.1,39.37,89.38,46.01
		c13.56,2.62,27.3,3.68,41.01,5.02c5.64,0.55,11.48,0.41,17.21,3.13c-4.56,4.05-9.78,5.79-14.98,7.35
		c-32.32,9.71-63.73,5.83-94.6-6.43c-16.22-6.45-31.68-14.5-47.39-22.02c-5.57-2.66-5.98-2.57-8.38,2.91
		c-10.25,23.47-18.62,47.61-24.75,72.46c-3.97,16.1-3.82,14.56,11.28,16.32c21.19,2.47,42.57,1.94,63.88,2.48
		c40.32,1.01,80.61,0.12,120.9-1.49c11.56-0.46,19.66-4.87,23.58-16.16c9.11-26.21,17.64-52.6,24.17-79.58
		c1.86-7.69,0.15-14.8-6.8-19.96c-18.23-13.55-37.26-25.53-59.06-32.68c-23.01-7.55-46.69-10.33-70.75-10.69
		C359.39,313.86,356.66,313.57,353.7,311.84z M135.87,385c0.25,2.81,0.16,5.94,0.83,9.08c3.02,14.19,11.52,24.87,21.82,34.36
		c13.69,12.62,29.71,21.74,46.14,30.2c5.17,2.66,6.34,2,6.54-3.84c0.42-12.31,0.57-24.64,1.16-36.94
		c0.37-7.74,2.53-15.04,7.18-21.41c0.77-1.06,1.49-2.55,3.02-2.14c1.56,0.42,1.39,2.09,1.45,3.38c0.32,6.32,0.33,12.66,0.93,18.95
		c0.76,7.9,1.29,15.87,3.54,23.56c0.4,1.38,0.58,2.97,2.71,2.97c2.34,0,2.62-1.73,2.97-3.32c0.68-3.07,1.03-6.22,1.81-9.26
		c6.56-25.56,16.12-50.15,24.31-75.19c1.12-3.42,1.13-6.32-0.39-9.54c-3.18-6.75-6.17-13.58-8.82-20.58
		c-3.44-9.09-4.63-18.67-6.74-28.04c-0.85-3.77-2.91-4.95-6.4-4.34c-1.29,0.23-2.6,0.54-3.81,1.04
		c-30.16,12.63-57.57,29.74-81.46,52.03C141.78,356.12,135.7,369.27,135.87,385z M551.91,424.72c0,9.31-0.13,17.14,0.04,24.96
		c0.14,6.52,1.41,7.32,7.51,5.12c13.38-4.82,26.74-9.71,40.11-14.58c17.32-6.31,33.47-14.31,46.22-28.35
		c8.19-9.02,9.26-18.97,5.74-29.65c-4.3-13.04-14.18-21.49-25.82-27.88c-26.19-14.36-54.75-16.27-83.78-15.57
		c-1.91,0.05-2.45,1.01-2.96,2.63c-3.47,11.06-3.64,21.73,2.12,32.31c4.52,8.29,8.65,16.9,9.42,26.54
		C551.19,408.9,551.51,417.55,551.91,424.72z M431.63,201.8c-17.8,1.25-37.25,1.33-56.61,3.95c-15.71,2.12-24.65,10.92-29.65,25.04
		c-0.98,2.76-0.61,4.6,2.95,4.3c3.65-0.3,7.3-0.58,10.95-0.77c36.91-1.92,73.87-2.27,110.81-2.91c18.65-0.32,37.3-0.32,55.95-0.44
		c3.96-0.03,7.29-0.19,8.26-5.47c0.94-5.12-1.76-7-5.51-8.52c-3.38-1.37-6.81-2.66-10.29-3.74
		C490.72,204.66,462.07,202.6,431.63,201.8z M560.57,323.96c0,0.16,0,0.32,0,0.48c3.49,0,6.99-0.17,10.46,0.05
		c2.93,0.18,3.71-0.88,3.5-3.73c-0.61-8.6-0.59-17.27-1.53-25.83c-0.95-8.72-0.9-17.58-3.24-26.13c-0.81-2.98-1.92-5.67-5.38-6.51
		c-4.36-1.05-6.54,0.27-8.12,5.69c-4.87,16.72-6.7,34.11-11.12,50.94c-0.94,3.56,1.54,4.82,4.47,4.99
		C553.25,324.11,556.92,323.96,560.57,323.96z M527.32,415.14c0-1,0.2-2.05-0.04-2.99c-0.55-2.16,1.36-5.56-2.37-6.16
		c-3.32-0.53-4.05,2.75-4.81,4.84c-5.54,15.24-10.87,30.55-16.13,45.89c-0.46,1.33-1.52,3.41,0.64,4.38c1.5,0.68,2.9-0.14,3.93-1.41
		C519.11,446.66,526.45,432.25,527.32,415.14z M268.97,298.16c-0.18,3.34,0.38,7.24,1.76,11.02c0.47,1.29,0.86,2.54,2.5,2.69
		c1.53,0.14,2.52-0.7,3.17-1.95c4.99-9.55,9.12-19.45,12.02-29.83c0.8-2.87-0.28-3.84-3.34-3.49
		C273.86,277.91,268.96,284.15,268.97,298.16z M366.5,510.12c0-0.07,0-0.14,0-0.21c8.16,0,16.32,0.22,24.47-0.07
		c6.97-0.24,13.93-1.05,20.88-1.64c1.24-0.11,3.01,0.22,3.01-1.72c0-2.33-2.03-1.61-3.38-1.82c-0.49-0.08-1-0.02-1.5-0.03
		c-23.64-0.28-47.25,0.33-70.83,2.21c-1.35,0.11-3.48-0.39-3.38,1.82c0.08,1.76,2.04,1.41,3.24,1.42
		C348.19,510.15,357.35,510.12,366.5,510.12z"/>
	<path class="st0" d="M353.7,311.84c2.95,1.73,5.69,2.02,8.53,2.06c24.07,0.35,47.74,3.14,70.75,10.69
		c21.8,7.15,40.83,19.13,59.06,32.68c6.95,5.16,8.66,12.27,6.8,19.96c-6.53,26.98-15.06,53.37-24.17,79.58
		c-3.92,11.28-12.02,15.69-23.58,16.16c-40.29,1.61-80.58,2.5-120.9,1.49c-21.31-0.54-42.68,0-63.88-2.48
		c-15.1-1.76-15.25-0.22-11.28-16.32c6.13-24.85,14.5-48.99,24.75-72.46c2.39-5.48,2.81-5.58,8.38-2.91
		c15.71,7.52,31.17,15.57,47.39,22.02c30.86,12.26,62.28,16.14,94.6,6.43c5.2-1.56,10.43-3.3,14.98-7.35
		c-5.72-2.72-11.57-2.58-17.21-3.13c-13.71-1.34-27.45-2.4-41.01-5.02c-34.28-6.63-64.48-21.11-89.38-46.01
		c-2.22-2.22-3.62-4.17-2.21-7.35c9.9-22.32,18.37-45.27,30.04-66.8c2.6-4.8,6.09-7.19,11.51-8.25c23.94-4.66,48.16-6.11,72.44-7.04
		c30.81-1.19,61.63-1.25,92.43,0.24c6.64,0.32,13.19,1.42,19.73,2.62c4.58,0.84,6.56,2.85,5.58,7.83
		c-3.94,19.89-8.68,39.57-14.53,58.98c-0.98,3.27-3.03,3.47-5.76,2.77c-7.95-2.05-15.18-5.87-22.49-9.42
		c-14.37-6.97-28.87-13.85-44.59-16.96c-26.55-5.26-53.13-6.91-79.06,3.52C358.21,308.36,355.69,309.32,353.7,311.84z
		 M402.27,384.96c11.91,0.81,22.49-2.74,31.91-9.31c11.92-8.31,11.75-19.43,0.06-27.96c-16.08-11.73-45.72-11.64-61.75,0.17
		c-10.96,8.08-11.42,18.12-0.84,26.83C380.52,381.99,390.76,385.86,402.27,384.96z"/>
	<path class="st0" d="M135.87,385c-0.17-15.73,5.91-28.88,16.79-39.03c23.88-22.29,51.3-39.4,81.46-52.03
		c1.21-0.5,2.52-0.81,3.81-1.04c3.49-0.61,5.56,0.57,6.4,4.34c2.11,9.38,3.3,18.95,6.74,28.04c2.65,7,5.64,13.83,8.82,20.58
		c1.52,3.22,1.5,6.12,0.39,9.54c-8.18,25.04-17.74,49.63-24.31,75.19c-0.78,3.04-1.13,6.19-1.81,9.26
		c-0.35,1.58-0.63,3.31-2.97,3.32c-2.13,0-2.3-1.59-2.71-2.97c-2.25-7.69-2.78-15.66-3.54-23.56c-0.6-6.29-0.62-12.63-0.93-18.95
		c-0.06-1.29,0.1-2.96-1.45-3.38c-1.53-0.41-2.25,1.08-3.02,2.14c-4.66,6.38-6.82,13.68-7.18,21.41
		c-0.58,12.31-0.73,24.63-1.16,36.94c-0.2,5.85-1.37,6.51-6.54,3.84c-16.43-8.46-32.45-17.57-46.14-30.2
		c-10.3-9.5-18.8-20.17-21.82-34.36C136.02,390.95,136.11,387.81,135.87,385z"/>
	<path class="st0" d="M551.91,424.72c-0.4-7.17-0.72-15.82-1.41-24.45c-0.77-9.64-4.91-18.25-9.42-26.54
		c-5.76-10.58-5.59-21.25-2.12-32.31c0.51-1.62,1.06-2.58,2.96-2.63c29.03-0.7,57.59,1.2,83.78,15.57
		c11.64,6.39,21.52,14.84,25.82,27.88c3.52,10.68,2.45,20.62-5.74,29.65c-12.74,14.03-28.89,22.03-46.22,28.35
		c-13.37,4.87-26.73,9.76-40.11,14.58c-6.1,2.2-7.36,1.4-7.51-5.12C551.78,441.86,551.91,434.03,551.91,424.72z"/>
	<path class="st0" d="M431.63,201.8c30.44,0.8,59.09,2.85,86.86,11.44c3.48,1.08,6.91,2.37,10.29,3.74c3.75,1.52,6.45,3.4,5.51,8.52
		c-0.97,5.28-4.3,5.44-8.26,5.47c-18.65,0.12-37.3,0.12-55.95,0.44c-36.94,0.64-73.9,0.99-110.81,2.91
		c-3.65,0.19-7.3,0.47-10.95,0.77c-3.56,0.29-3.93-1.55-2.95-4.3c5-14.12,13.94-22.92,29.65-25.04
		C394.38,203.14,413.83,203.06,431.63,201.8z"/>
	<path class="st0" d="M560.57,323.96c-3.65,0-7.32,0.16-10.96-0.05c-2.94-0.17-5.41-1.42-4.47-4.99
		c4.42-16.83,6.25-34.22,11.12-50.94c1.58-5.42,3.77-6.73,8.12-5.69c3.47,0.83,4.57,3.53,5.38,6.51c2.34,8.55,2.29,17.41,3.24,26.13
		c0.94,8.56,0.91,17.23,1.53,25.83c0.2,2.85-0.57,3.91-3.5,3.73c-3.47-0.22-6.97-0.05-10.46-0.05
		C560.57,324.28,560.57,324.12,560.57,323.96z"/>
	<path class="st0" d="M527.32,415.14c-0.86,17.11-8.21,31.52-18.78,44.55c-1.03,1.28-2.44,2.09-3.93,1.41
		c-2.16-0.98-1.1-3.05-0.64-4.38c5.26-15.34,10.59-30.65,16.13-45.89c0.76-2.09,1.49-5.38,4.81-4.84c3.73,0.6,1.83,4,2.37,6.16
		C527.51,413.09,527.32,414.14,527.32,415.14z"/>
	<path class="st0" d="M268.97,298.16c-0.01-14.01,4.89-20.25,16.11-21.56c3.06-0.36,4.14,0.61,3.34,3.49
		c-2.9,10.38-7.03,20.28-12.02,29.83c-0.65,1.25-1.64,2.09-3.17,1.95c-1.63-0.15-2.03-1.39-2.5-2.69
		C269.35,305.39,268.79,301.5,268.97,298.16z"/>
	<path class="st0" d="M366.5,510.12c-9.16,0-18.31,0.03-27.47-0.04c-1.2-0.01-3.15,0.35-3.24-1.42c-0.11-2.21,2.03-1.71,3.38-1.82
		c23.57-1.87,47.19-2.49,70.83-2.21c0.5,0.01,1.01-0.05,1.5,0.03c1.35,0.21,3.37-0.51,3.38,1.82c0,1.94-1.77,1.61-3.01,1.72
		c-6.96,0.59-13.91,1.4-20.88,1.64c-8.15,0.28-16.31,0.07-24.47,0.07C366.5,509.98,366.5,510.05,366.5,510.12z"/>
	<path class="st2" d="M402.27,384.96c-11.51,0.9-21.74-2.97-30.61-10.27c-10.58-8.71-10.12-18.75,0.84-26.83
		c16.03-11.82,45.67-11.9,61.75-0.17c11.69,8.53,11.86,19.65-0.06,27.96C424.76,382.21,414.18,385.76,402.27,384.96z"/>
</g>
</svg>
