<svg xmlns="http://www.w3.org/2000/svg" viewBox="0 0 452.9 515.63"><defs><style>.cls-1{fill:#fff;}</style></defs><title>Asset 1</title><g id="Layer_2" data-name="Layer 2"><g id="Layer_1-2" data-name="Layer 1"><path class="cls-1" d="M446.66,503.68,433,514.57l-1.65.56c-2.15.17-4.3.48-6.44.48q-198.4,0-396.79,0c-2.47,0-4.94-.44-7.4-.67a34.31,34.31,0,0,0-3.18-2C5.91,507.1.22,497,.19,484.71q-.4-162.46,0-324.93c0-8.74,2.1-17.87,10-23.47,15.58-11,31.45-21.56,47.21-32.29Q73,93.46,88.5,83l.82-.63L95,78.5l.84-.64Q111.94,67.19,128,56.5l.83-.65a10.58,10.58,0,0,0,2.27-.83C154.41,39.49,177.82,24.1,201,8.32,216.73-2.44,235.6-2.91,251.3,7.76c10.84,7.36,21.66,14.75,32.55,22Q336.4,64.91,389,99.91c11.53,7.66,23.24,15,34.88,22.54l.85.61,2.16,1.4.84.6,2.16,1.4.86.61,4.1,2.4,3,2.47,2.08,1.5,6.71,6.74,1.39,2.15.6.89q1.93,4.68,3.88,9.38c.13,2.82.38,5.64.38,8.45q0,161.28-.19,322.55c0,6-3,11.95-4.62,17.93ZM227.12,123.49c-19.79-1.69-40.34,3-59.54,11.39-12.28,5.39-28.11,6.57-34.38,21.9a11.82,11.82,0,0,1-1.74,2.32,18.93,18.93,0,0,0,3.86-.35c10.8-3.16,21.55-6.51,32.38-9.58,3-.84,6.83-2.68,6.88,3.4a22.79,22.79,0,0,0,1.66,8.18c1.69,4.22,0,8.38-4.29,8.27-1.8-.05-3.37-2.94-5.35-3.93-2.33-1.18-5-2.34-7.5-2.26-1.27,0-2.45,2.81-3.67,4.34a66.69,66.69,0,0,0,7.21,4.17c1,.45,2.57-.4,3.88-.44s3.22-.25,3.7.44c3.82,5.46,10.22,9.41,9.52,17.58-.38,4.46-1.85,5.87-6.2,5.26-1.79-.25-3.84.58-5.62,1.3-2.83,1.13-5.41,3-8.31,3.78-3.22.9-7.39-.06-9.9,1.63-8.44,5.7-16.36,12.17-24.4,18.45-6,4.65-11.65,9.65-17.77,14.07-1.26.9-4.29.57-5.83-.34-6.21-3.68-18-2.93-22.18,3-5,7-8.78,14.79-12.74,22.43-.65,1.25.56,3.46.91,5.22a47.59,47.59,0,0,0,4.9-1.44c3.12-1.27,8.57-4.32,8.89-3.84,3,4.42-1.7,6.44-3.86,9.3-2.32,3.06-3.95,5.95.84,8.52,1.11.59,2.3,2.88,2,4a97.88,97.88,0,0,1-4.67,12.31c-.44,1-1.84,1.59-2.8,2.37-.47-1-.95-1.95-1.41-2.93-2.77-5.84-5.25-11.83-8.44-17.42-1-1.8-3.87-2.7-6-3.59-.26-.11-2.18,2.35-2.36,3.74a167.26,167.26,0,0,0,8.77,79.48A178.84,178.84,0,0,0,118,431.5c4.83,4,10,7.63,15.17,11.28a4.9,4.9,0,0,0,3.26.38c.28,0,.61-1.68.44-2.48-2.7-12.54-5.11-25.16-8.37-37.55-2.25-8.59-4.65-17.27-14.7-21.07-4.58-1.74-8.74-5.32-12.3-8.85a69.53,69.53,0,0,1-11.15-13.95c-4.51-7.69-5.37-16.35-1.84-24.62,1.53-3.58,2-6.14.26-9.67a10.79,10.79,0,0,1,2-12.89c3.86-4.18,7.75-7,14-4.77,3.82,1.36,8.1,1.34,12.12,2.2a43.09,43.09,0,0,1,8.9,2.66c6,2.75,11.52,6.9,17.75,8.57s9.38,3.65,9.44,10.43c0,2.08,2.89,5.56,4.92,5.94,6.07,1.12,12.41.67,18.56,1.48,14.75,1.94,17.61,7.61,11,21-.15.3-.43.58-.45.89-.19,2.77-1.07,5.76-.34,8.28,2,6.81,1.27,16.13-5.73,21.11-2.74,1.94-5.45,6.9-4.94,9.94,2.09,12.31-8.55,20.44-9.35,31.6-.05.78-1.46,1.38-1.9,2.24-2.07,4.06-4.8,8-5.84,12.32-1.52,6.32,0,11.81,7.4,14.06s14.62,5.7,22.19,7.37c22,4.86,44,6.54,66.6,2.4a180,180,0,0,0,91.37-45.58,163.31,163.31,0,0,0,45.17-69.51c5.43-16.56,8.13-34.11,10.83-51.41,1.23-7.86-.37-16.2-1-24.3-.29-3.84-2.74-5.23-6.67-4.69-11.07,1.54-11.08,1.45-16.54-8-.66-1.15-1.47-2.21-2.22-3.32-7.08-10.55-14.1-21.14-21.33-31.6-.67-1-2.6-1.09-3.95-1.6-.41,1.88-1.77,4.28-1.07,5.57,8.28,15.42,13.21,32.63,25.44,46,3.59,3.92,6.44,6.19,11.82,4.26,1.92-.7,5.44-.74,6.31.39,1.18,1.54.91,4.56.55,6.83-2.21,14-12,23.26-20.55,33.46-5.21,6.21-9.64,13.16-8.23,22.13,1,6.63,2.22,13.29,2.45,20a15.2,15.2,0,0,1-7.08,14c-3.73,2.52-8.49,5.64-6.52,11.67,1.45,4.41.47,7.87-2.31,11.52a66.15,66.15,0,0,0-7,11.93c-4.61,9.82-10.47,17.18-22.62,18.34-6.21.6-9.32-.34-11.25-6.23-4.53-13.84-9.16-27.65-14.2-41.3-2.29-6.21-2.41-11.79.71-17.69,1.59-3,3.71-6.91,3-9.75-2.13-8.39-5.57-16.46-8.45-24.67-1.07-3.05-3.43-6.5-2.76-9.15,2.46-9.62-.56-15.38-9.4-19.86-4.69-2.37-8-5.07-12.49-.35-1,1-3,1.37-4.61,1.54-4.61.48-9.3,1.3-13.85.86-3.46-.34-7.89-1.48-9.88-3.91-5.33-6.5-9.62-13.86-14.18-21a5.48,5.48,0,0,1-.76-3.83c2.05-8.57,2.42-17.15,2.75-26a28.41,28.41,0,0,1,13.12-22.57c1.64-1.07,2.8-3.33,3.53-5.29,3.32-8.88,7.09-17,18.61-17,1.19,0,2.39-1.34,3.58-2.05-.88-1.11-1.53-2.73-2.68-3.24-5.57-2.47-7.36-6.77-5.5-12.18s6.31-3,10.17-2.58a6.74,6.74,0,0,0,5.14-1.71c.75-.84.35-3.55-.47-4.8-2.71-4.16-6.3-7.78-8.63-12.11-1.15-2.13-.25-5.35-.28-8.07,2.64.25,5.87-.36,7.76,1,2.41,1.69,3.56,5.1,5.64,7.41,1.1,1.24,3.43,2.79,4.5,2.37a43.25,43.25,0,0,0,9.46-5.37c3-2.14,2.81-4.1-.91-5.68-1.53-.64-3.62-2.52-3.55-3.73.09-1.7,1.6-4.18,3.12-4.81,5.32-2.18,10.95-3.61,16.37-5.57,1.53-.55,2.77-1.94,4.14-2.94-1.08-1.14-1.95-2.75-3.27-3.34C281.7,131.05,256.46,122,227.12,123.49Zm113.58,99,.31-1c1.16,0,2.45.33,3.47-.06,2.74-1,5.36-2.36,8-3.57-2.35-1.77-4.46-4.21-7.11-5.16-7.19-2.58-14.67-4.32-21.89-6.84-2.18-.77-4-2.82-5.73-4.59-2.4-2.52-4.19-5.7-6.86-7.85-1.38-1.12-4.07-.84-6.17-.81-3.07,0-7.05,1.74-9,.38-5.75-3.91-10.16-2.12-14.2,1.89-1.89,1.87-2.74,4.79-4.05,7.24,2.66.58,5.39,1.87,8,1.6,4.88-.5,8.27-.13,8.28,6,0,3,15.54,12.77,18.31,11.74a6,6,0,0,0,2.32-1.82c2.92-3.5,6.36-3.49,10.36-2.08C330,219.33,335.36,220.8,340.7,222.44ZM142.1,165.35,130.47,175c3.22,2.23,6.19,5.12,9.75,6.5,2.78,1.08,8-5.54,7.28-9.57C147.16,170,144.68,168.38,142.1,165.35ZM318,164.21c-3.24-3.18-4.77-5.82-6.94-6.53-3-1-7.44,5.4-7.11,10.28.09,1.31,3,3.74,3.4,3.51A125.19,125.19,0,0,0,318,164.21Zm74.84,73.44c-2.67-1.84-4.5-3.18-6.47-4.3a8.63,8.63,0,0,0-1.78,2.09,44.19,44.19,0,0,0,5.12,4.75C389.88,240.32,391.12,239.07,392.85,237.65Z"/><path class="cls-1" d="M186,147.72c12.13-.54,24.26-1.26,36.39-1.48,2.33-.05,5.85,1.23,6.72,3s-.14,5.69-1.72,7c-2.91,2.41-6.73,3.85-10.35,5.24-5.36,2.08-11,3.36-16.27,5.7-7.2,3.23-9.77,1.9-11.66-5.65-.63-2.53-3.94-4.32-5.76-6.65-1.44-1.83-3.52-4.09-3.33-6,.14-1.4,3.42-2.5,5.3-3.73C185.51,146,185.74,146.86,186,147.72Z"/><path class="cls-1" d="M108.45,263.47c-3.15,2.25-5.56,4.15-5.67,4a114.68,114.68,0,0,1-8.15-10.37c-.18-.25,2.24-2.74,2.34-2.67C100.43,257,103.76,259.71,108.45,263.47Z"/><path class="cls-1" d="M113.79,281.38c-2.63-3.63-5.35-5.79-5.06-7.41.33-1.88,3.32-4.55,5.14-4.54s4.38,2.86,4.8,4.85C119,275.75,116.36,277.84,113.79,281.38Z"/><path class="cls-1" d="M82.7,309.76c-2,1-4.17,3-6,2.69s-4.3-3.23-4-4.53c.35-1.83,2.89-4.35,4.65-4.48s3.68,2.34,5.53,3.68Z"/><path class="cls-1" d="M103.78,245.13c-1-1.9-2.09-3-2-4,.06-.84,1.42-1.6,2.21-2.39.62,1,1.6,1.92,1.74,3C105.8,242.5,104.8,243.42,103.78,245.13Z"/></g></g></svg>