<?xml version="1.0" encoding="utf-8"?>
<!-- Generator: Adobe Illustrator 24.0.2, SVG Export Plug-In . SVG Version: 6.00 Build 0)  -->
<svg version="1.1" id="Layer_1" xmlns="http://www.w3.org/2000/svg" xmlns:xlink="http://www.w3.org/1999/xlink" x="0px" y="0px"
	 viewBox="0 0 512 512" style="enable-background:new 0 0 512 512;" xml:space="preserve">
<style type="text/css">
	.st0{display:none;fill:#FFFFFF;}
	.st1{display:none;fill:#FFFFFF;}
	.st2{fill:#FFFFFF;}
</style>
<g>
	<path class="st0" d="M445,432c-126,0-252,0-378,0c0-126,0-252,0-378c126,0,252,0,378,0C445,180,445,306,445,432z M256.62,331.63
		c59.9,0,119.8,0,179.71,0c0.47,0,0.94,0.01,1.42,0c1.23-0.03,1.23-0.04,1.27-1.22c0.01-0.26,0-0.52,0-0.79c0-13.69,0-27.38,0-41.07
		c0-2.11,0.16-1.95-1.95-1.95c-120.28,0-240.55,0-360.83,0c-2.11,0-1.98-0.21-1.98,1.92c0,13.59-0.01,27.17,0,40.76
		c0,2.65-0.32,2.35,2.34,2.35C136.61,331.63,196.61,331.63,256.62,331.63z M130.38,209.87c5.29-0.55,10.3-1.77,14.97-4.18
		c6.32-3.25,10.92-8.07,13.19-14.9c1.57-4.72,1.71-9.57,1.03-14.46c-1.17-8.33-5.56-14.3-13.19-17.87
		c-4.86-2.27-10.04-3.24-15.33-3.75c-5.81-0.55-11.63-0.33-17.45-0.15c-5.03,0.16-10.06,0.42-15.1,0.31
		c-7.71-0.17-15.41-0.33-23.12-0.48c-2.78-0.05-2.75-0.04-2.64,2.76c0.03,0.81,0.36,0.95,1.06,0.94c1.31-0.01,2.62,0.02,3.93,0.09
		c1.57,0.09,3.12,0.37,4.61,0.92c2.3,0.86,3.87,2.41,4.56,4.82c0.47,1.62,0.72,3.27,0.88,4.94c0.46,4.81,0.59,9.63,0.59,14.45
		c0,16.52-0.01,33.04,0.01,49.56c0.01,4.35-0.1,8.71-0.34,13.05c-0.14,2.41-0.39,4.8-0.89,7.17c-0.64,3.02-2.48,4.87-5.37,5.78
		c-2.07,0.65-4.22,0.73-6.37,0.89c-0.86,0.07-2.02-0.43-2.49,0.32c-0.4,0.65-0.13,1.72-0.15,2.61c0,0.1,0,0.21,0,0.31
		c0,0.38,0.19,0.58,0.58,0.57c0.42-0.01,0.84-0.01,1.26-0.03c5.82-0.19,11.63-0.4,17.45-0.56c8.71-0.23,17.41,0.19,26.1,0.52
		c2.81,0.11,2.77,0.11,2.75-2.75c-0.01-0.88-0.34-1.04-1.1-1.01c-1.63,0.08-3.25-0.06-4.87-0.25c-6.16-0.72-8.11-3.58-8.7-8.02
		c-0.53-3.91-0.8-7.82-0.82-11.76c-0.06-8.55-0.05-17.1-0.06-25.64c0-0.21,0.02-0.42,0-0.63c-0.05-0.6,0.19-0.86,0.81-0.81
		c1.04,0.08,2.09,0.15,3.14,0.18c2.64,0.08,4.7,1.25,6.34,3.28c1.29,1.59,2.65,3.12,3.93,4.71c11.19,13.88,22.38,27.75,33.52,41.66
		c0.72,0.9,1.43,1.15,2.52,1.05c2.82-0.25,5.65-0.42,8.48-0.54c5.04-0.21,10.06,0.24,15.09,0.5c2.47,0.13,2,0.32,2.05-1.84
		c0-0.16,0-0.31,0-0.47c-0.01-1.44,0-1.46-1.38-1.67c-4.73-0.73-8.75-2.77-11.95-6.37c-0.49-0.55-0.99-1.08-1.48-1.63
		c-11.8-13.51-23.59-27.02-35.38-40.53C130.8,210.7,130.41,210.47,130.38,209.87z M439.13,180.03c0.3-0.47,0.2-0.84,0.18-1.2
		c-0.34-5.92-0.69-11.83-1.04-17.74c-0.1-1.67-0.16-3.35-0.3-5.02c-0.17-2.09-0.02-1.65-1.75-1.7c-0.26-0.01-0.52,0-0.79,0
		c-17.94,0-35.87,0-53.81,0c-14.42,0-28.84,0-43.27,0c-1.71,0-1.71,0-1.71,1.78c0,7.08,0,14.16,0,21.24c0,2.79,0,2.76,2.75,2.67
		c0.76-0.02,1.03-0.28,1.02-1c-0.01-0.68,0.04-1.36,0.1-2.04c0.24-2.77,0.66-5.51,1.6-8.15c1.46-4.08,4.21-6.81,8.4-8.02
		c1.26-0.36,2.54-0.65,3.84-0.78c6.22-0.61,12.46-0.62,18.7-0.31c1.05,0.05,2.08,0.26,3.08,0.6c2.22,0.75,3.04,1.86,3.04,4.18
		c0,26.33,0,52.65-0.02,78.98c0,2.15-0.17,4.3-0.59,6.41c-0.78,4.04-3.04,6.81-6.98,8.15c-2.6,0.89-5.28,1.31-8,1.49
		c-2.95,0.2-2.92,0.2-2.82,3.11c0.03,0.81,0.33,0.97,1.04,0.92c1.2-0.08,2.41-0.09,3.62-0.12c5.35-0.16,10.69-0.34,16.04-0.47
		c9.6-0.22,19.19,0.21,28.78,0.49c1.15,0.03,2.31,0.07,3.46,0.1c0.37,0.01,0.79,0.05,0.77-0.5c-0.02-1.04,0.37-2.26-0.16-3.08
		c-0.42-0.64-1.65-0.31-2.51-0.43c-0.31-0.04-0.63-0.03-0.94-0.06c-2.5-0.27-4.98-0.65-7.36-1.51c-3.66-1.33-5.84-3.89-6.69-7.68
		c-0.65-2.9-0.65-5.83-0.65-8.76c0-17.83,0-35.66,0-53.49c0-7.87,0.03-15.73-0.02-23.6c-0.01-1.97,0.87-3.15,2.6-3.85
		c1.28-0.51,2.61-0.76,3.97-0.88c4.56-0.4,9.12-0.18,13.68-0.01c1.84,0.07,3.66,0.33,5.45,0.72c4.88,1.07,8.69,3.55,10.75,8.28
		c0.44,1.01,0.8,2.04,1.1,3.11c0.67,2.38,0.98,4.82,1.19,7.28c0.05,0.62,0.18,0.96,0.9,0.93
		C436.92,179.99,438.07,180.03,439.13,180.03z M246.19,208.85c-0.08,11.22,0.14,22.45-0.16,33.67c-0.1,3.61-0.32,7.23-1.19,10.76
		c-0.61,2.46-2.13,4.16-4.43,5.17c-0.82,0.36-1.67,0.61-2.55,0.78c-2.17,0.43-4.37,0.55-6.57,0.53c-0.65-0.01-0.97,0.17-0.92,0.88
		c0.05,0.63,0.05,1.26,0,1.89c-0.07,0.8,0.18,1.15,1.04,1.06c0.99-0.09,1.99-0.08,2.99-0.11c5.19-0.16,10.38-0.35,15.57-0.48
		c8.81-0.22,17.62,0.21,26.42,0.53c2.83,0.1,2.8,0.1,2.74-2.77c-0.02-0.74-0.19-1.03-0.97-1c-1.63,0.08-3.25-0.09-4.87-0.25
		c-5.52-0.52-8.08-2.82-9.04-8.27c-0.68-3.88-0.86-7.82-0.87-11.75c-0.03-18.41-0.05-36.82-0.05-55.23c0-2.99,0.02-5.98,0.12-8.97
		c0.11-3.14,0.35-6.28,0.89-9.39c0.67-3.89,2.86-6.27,6.71-7.2c2.11-0.51,4.25-0.58,6.4-0.62c1.8-0.03,1.66,0.22,1.66-1.71
		c0-2.02,0-2.02-1.96-1.99c-10.85,0.15-21.7,0.78-32.56,0.33c-3.98-0.17-7.97-0.23-11.95-0.32c-2.28-0.05-2.28-0.03-2.25,2.32
		c0.01,1.35,0.01,1.35,1.37,1.37c2.25,0.03,4.5,0.1,6.71,0.64c3.84,0.94,6.03,3.32,6.69,7.21c0.54,3.21,0.81,6.45,0.89,9.7
		C246.31,186.72,246.11,197.78,246.19,208.85z M199.77,215.57c3.69-0.02,6.65-2.98,6.59-6.57c-0.07-3.64-3.03-6.53-6.68-6.51
		c-3.61,0.02-6.5,3-6.47,6.68C193.24,212.75,196.15,215.59,199.77,215.57z M309.86,215.57c3.69,0.02,6.67-2.87,6.67-6.48
		c0-3.62-2.96-6.58-6.59-6.59c-3.62-0.02-6.56,2.94-6.56,6.59C303.38,212.67,306.26,215.55,309.86,215.57z"/>
	<path class="st1" d="M256.62,331.63c-60.01,0-120.01,0-180.02,0c-2.66,0-2.34,0.3-2.34-2.35c-0.01-13.59,0-27.17,0-40.76
		c0-2.12-0.13-1.92,1.98-1.92c120.28,0,240.55,0,360.83,0c2.11,0,1.95-0.16,1.95,1.95c0,13.69,0,27.38,0,41.07
		c0,0.26,0.01,0.52,0,0.79c-0.04,1.18-0.04,1.19-1.27,1.22c-0.47,0.01-0.94,0-1.42,0C376.43,331.63,316.52,331.63,256.62,331.63z"/>
	<path class="st2" d="M100.31,257.09c0.03,0.74,0.51,1.03,0.84,1.4c14.61,16.75,29.23,33.49,43.85,50.23
		c0.6,0.69,1.23,1.34,1.83,2.02c3.96,4.46,8.95,6.99,14.81,7.89c1.7,0.26,1.7,0.29,1.71,2.07c0,0.19,0,0.39,0,0.58
		c-0.07,2.67,0.52,2.44-2.54,2.28c-6.23-0.32-12.45-0.89-18.7-0.63c-3.5,0.15-7.01,0.36-10.5,0.67c-1.35,0.12-2.22-0.18-3.12-1.3
		c-13.81-17.24-27.68-34.44-41.55-51.64c-1.59-1.97-3.28-3.87-4.87-5.83c-2.04-2.51-4.59-3.96-7.86-4.06
		c-1.3-0.04-2.6-0.12-3.89-0.22c-0.77-0.06-1.07,0.26-1.01,1c0.02,0.26,0,0.52,0,0.78c0.02,10.59,0,21.19,0.08,31.78
		c0.04,4.87,0.37,9.73,1.02,14.57c0.74,5.49,3.15,9.04,10.79,9.93c2,0.23,4.01,0.4,6.03,0.31c0.94-0.04,1.35,0.15,1.36,1.25
		c0.03,3.54,0.09,3.54-3.4,3.41c-10.78-0.41-21.56-0.93-32.35-0.65c-7.21,0.19-14.42,0.46-21.63,0.69
		c-0.52,0.02-1.04,0.03-1.56,0.03c-0.48,0.01-0.71-0.24-0.71-0.71c0-0.13-0.01-0.26,0-0.39c0.03-1.1-0.31-2.43,0.19-3.23
		c0.58-0.93,2.03-0.32,3.09-0.4c2.66-0.2,5.32-0.3,7.89-1.1c3.59-1.12,5.87-3.41,6.66-7.16c0.62-2.93,0.93-5.9,1.1-8.89
		c0.3-5.39,0.43-10.78,0.43-16.18c-0.02-20.47-0.01-40.95-0.01-61.42c0-5.98-0.17-11.96-0.73-17.91c-0.2-2.07-0.51-4.11-1.09-6.12
		c-0.86-2.99-2.79-4.9-5.65-5.97c-1.84-0.69-3.76-1.03-5.71-1.14c-1.62-0.09-3.25-0.13-4.87-0.11c-0.86,0.01-1.27-0.17-1.31-1.17
		c-0.14-3.47-0.18-3.49,3.27-3.43c9.55,0.19,19.1,0.39,28.66,0.6c6.24,0.14,12.48-0.19,18.71-0.38c7.21-0.22,14.42-0.5,21.62,0.19
		c6.56,0.63,12.98,1.83,19,4.64c9.46,4.42,14.9,11.82,16.35,22.15c0.85,6.06,0.67,12.07-1.27,17.92
		c-2.81,8.47-8.51,14.43-16.35,18.47C113.08,254.89,106.87,256.41,100.31,257.09z M69.28,226.09c0,0,0.01,0,0.01,0
		c0,9.16,0,18.33,0,27.49c0,1.58-0.1,1.5,1.46,1.49c3.31-0.03,6.63,0.02,9.94-0.11c5.06-0.2,10.11-0.59,15.04-1.91
		c7.91-2.1,13.6-6.7,15.95-14.73c2.38-8.14,2.65-16.42,0.25-24.61c-3.29-11.24-10.87-17.68-22.5-19.22
		c-4.52-0.6-9.08-0.35-13.62-0.54c-1.03-0.04-2.07,0.12-3.11,0.16c-1.49,0.06-2.37,0.92-2.92,2.2c-0.53,1.23-0.49,2.54-0.49,3.84
		C69.28,208.81,69.28,217.45,69.28,226.09z"/>
	<path class="st2" d="M482.96,220.1c-1.31,0-2.74-0.04-4.15,0.01c-0.89,0.03-1.05-0.39-1.11-1.16c-0.26-3.04-0.65-6.07-1.48-9.02
		c-0.37-1.31-0.82-2.6-1.36-3.85c-2.56-5.86-7.28-8.94-13.33-10.27c-2.22-0.49-4.47-0.81-6.75-0.89c-5.65-0.21-11.3-0.48-16.95,0.02
		c-1.69,0.15-3.34,0.45-4.92,1.09c-2.15,0.87-3.24,2.34-3.23,4.78c0.06,9.75,0.03,19.5,0.03,29.25c0,22.1,0,44.2,0,66.3
		c0,3.64,0,7.27,0.8,10.86c1.05,4.69,3.76,7.87,8.29,9.52c2.96,1.08,6.02,1.55,9.13,1.88c0.39,0.04,0.78,0.02,1.17,0.08
		c1.07,0.15,2.6-0.26,3.11,0.54c0.66,1.01,0.17,2.52,0.2,3.81c0.01,0.68-0.5,0.63-0.96,0.62c-1.43-0.04-2.86-0.08-4.29-0.12
		c-11.89-0.34-23.77-0.88-35.67-0.6c-6.63,0.15-13.25,0.38-19.88,0.58c-1.49,0.04-2.99,0.06-4.48,0.15
		c-0.88,0.06-1.26-0.14-1.29-1.15c-0.12-3.61-0.16-3.6,3.5-3.85c3.38-0.23,6.7-0.75,9.92-1.85c4.89-1.67,7.68-5.1,8.66-10.11
		c0.51-2.62,0.72-5.28,0.73-7.95c0.02-32.63,0.02-65.26,0.02-97.89c0-2.88-1.02-4.26-3.77-5.18c-1.24-0.42-2.51-0.67-3.81-0.74
		c-7.73-0.39-15.46-0.38-23.17,0.38c-1.62,0.16-3.2,0.52-4.76,0.97c-5.2,1.5-8.61,4.88-10.41,9.94c-1.17,3.27-1.69,6.66-1.98,10.1
		c-0.07,0.84-0.13,1.69-0.12,2.53c0.01,0.9-0.33,1.21-1.27,1.24c-3.41,0.11-3.41,0.15-3.41-3.31c0-8.77,0-17.55,0-26.32
		c0-2.2,0-2.2,2.12-2.2c17.87,0,35.75,0,53.62,0c22.23,0,44.46,0,66.69,0c0.33,0,0.65-0.01,0.97,0c2.15,0.06,1.96-0.48,2.17,2.11
		c0.17,2.07,0.25,4.15,0.37,6.23c0.43,7.33,0.86,14.66,1.28,21.99C483.21,219.05,483.34,219.51,482.96,220.1z"/>
	<path class="st2" d="M243.83,255.82c-0.09-13.72,0.15-27.43-0.18-41.15c-0.1-4.03-0.43-8.04-1.11-12.02
		c-0.82-4.82-3.53-7.77-8.29-8.94c-2.75-0.67-5.52-0.75-8.32-0.8c-1.68-0.02-1.68-0.03-1.7-1.7c-0.03-2.92-0.03-2.94,2.79-2.88
		c4.94,0.11,9.88,0.19,14.81,0.39c13.46,0.56,26.9-0.22,40.35-0.4c2.43-0.03,2.44-0.03,2.43,2.47c-0.01,2.4,0.17,2.09-2.06,2.12
		c-2.66,0.04-5.31,0.14-7.93,0.77c-4.77,1.15-7.48,4.11-8.31,8.92c-0.66,3.85-0.96,7.74-1.1,11.63c-0.13,3.7-0.16,7.41-0.15,11.11
		c0.01,22.82,0.02,45.63,0.06,68.45c0.01,4.88,0.23,9.75,1.08,14.56c1.19,6.75,4.36,9.61,11.21,10.25c2.01,0.19,4.02,0.4,6.03,0.3
		c0.97-0.05,1.18,0.32,1.2,1.24c0.08,3.56,0.11,3.56-3.39,3.43c-10.91-0.39-21.82-0.93-32.75-0.65c-6.43,0.16-12.86,0.39-19.3,0.59
		c-1.23,0.04-2.47,0.02-3.7,0.14c-1.07,0.1-1.37-0.33-1.29-1.32c0.07-0.77,0.06-1.56,0-2.34c-0.07-0.88,0.33-1.1,1.14-1.09
		c2.73,0.03,5.45-0.13,8.15-0.66c1.09-0.21,2.14-0.53,3.16-0.97c2.86-1.25,4.73-3.35,5.49-6.41c1.09-4.38,1.36-8.86,1.48-13.34
		C244.01,283.64,243.73,269.73,243.83,255.82z"/>
	<path class="st2" d="M186.3,264.15c-4.48,0.03-8.08-3.49-8.13-7.93c-0.04-4.55,3.54-8.25,8.02-8.28c4.52-0.02,8.19,3.56,8.27,8.07
		C194.54,260.46,190.87,264.12,186.3,264.15z"/>
	<path class="st2" d="M322.75,264.15c-4.47-0.03-8.03-3.6-8.03-8.04c0-4.53,3.65-8.19,8.13-8.17c4.5,0.02,8.17,3.69,8.16,8.17
		C331.02,260.59,327.33,264.18,322.75,264.15z"/>
	<path class="st0" d="M105.35,184.87c0-6.97,0-13.95,0-20.92c0-1.05-0.04-2.1,0.39-3.1c0.45-1.04,1.15-1.73,2.36-1.78
		c0.84-0.03,1.68-0.17,2.51-0.13c3.66,0.15,7.35-0.04,10.99,0.44c9.39,1.24,15.5,6.44,18.16,15.51c1.93,6.6,1.72,13.28-0.2,19.85
		c-1.89,6.48-6.49,10.18-12.87,11.88c-3.98,1.06-8.05,1.37-12.14,1.54c-2.67,0.11-5.35,0.07-8.02,0.09
		c-1.26,0.01-1.18,0.07-1.18-1.2C105.36,199.65,105.36,192.26,105.35,184.87C105.35,184.87,105.35,184.87,105.35,184.87z"/>
</g>
</svg>
