<?xml version="1.0" encoding="utf-8"?>
<!-- Generator: Adobe Illustrator 24.0.2, SVG Export Plug-In . SVG Version: 6.00 Build 0)  -->
<svg version="1.1" id="Layer_1" xmlns="http://www.w3.org/2000/svg" xmlns:xlink="http://www.w3.org/1999/xlink" x="0px" y="0px"
	 viewBox="0 0 256 256" style="enable-background:new 0 0 256 256;" xml:space="preserve">
<style type="text/css">
	.st0{fill:#FEEF31;}
	.st1{display:none;fill:#FEFEFD;}
</style>
<g>
	<path class="st0" d="M150.98,255.92c-15.32,0-30.65,0-45.97,0c-2.16-1.74-3.14-3.88-3.05-6.77c0.18-5.82,0.01-11.65,0.07-17.48
		c0.02-2.06-0.41-3.25-2.77-3.88c-7.56-2.01-14.79-5-21.55-8.93c-2.65-1.53-4.13-0.8-5.97,1.12c-4.14,4.33-8.39,8.57-12.71,12.72
		c-3.42,3.29-6.6,3.31-9.97-0.01c-8.66-8.53-17.25-17.12-25.78-25.78c-3.33-3.38-3.26-6.5,0.07-9.95
		c4.05-4.19,8.12-8.37,12.39-12.33c2.3-2.13,2.92-3.92,1.19-6.8c-3.85-6.43-6.64-13.4-8.59-20.61c-0.75-2.77-2.04-3.31-4.51-3.26
		c-5.66,0.12-11.33-0.1-16.98,0.09c-2.89,0.1-5.03-0.89-6.77-3.05c0-15.32,0-30.65,0-45.97c1.74-2.15,3.87-3.14,6.76-3.05
		c5.81,0.18,11.63,0,17.45,0.08c2.22,0.03,3.44-0.38,4.18-2.94c2.19-7.64,5.07-15.07,9.25-21.88c1.25-2.05,0.69-3.19-0.81-4.64
		c-4.53-4.39-9.01-8.86-13.41-13.39c-3.55-3.66-3.59-6.66-0.02-10.29c8.4-8.52,16.87-16.98,25.39-25.39
		c3.63-3.58,6.68-3.58,10.31-0.07c4.43,4.27,8.78,8.61,13.04,13.05c1.7,1.77,2.99,2.47,5.45,0.99c6.4-3.85,13.29-6.76,20.53-8.63
		c3.12-0.81,4.08-2.37,3.9-5.56c-0.3-5.47,0.05-10.97-0.14-16.45c-0.1-2.89,0.9-5.02,3.05-6.76c15.32,0,30.65,0,45.97,0
		c2.16,1.74,3.14,3.88,3.05,6.76c-0.18,5.82,0.04,11.64-0.1,17.46c-0.05,2.39,0.72,3.38,3.14,4.07c7.35,2.07,14.46,4.89,21.05,8.78
		c2.56,1.51,4.1,1,5.98-0.98c4.12-4.34,8.38-8.56,12.69-12.71c3.65-3.52,6.69-3.53,10.32,0.05c8.53,8.41,17,16.88,25.4,25.4
		c3.57,3.63,3.53,6.63-0.04,10.3c-4.29,4.41-8.65,8.76-13.07,13.04c-1.67,1.62-2.06,2.98-0.79,5.17c3.93,6.76,6.88,13.99,8.99,21.5
		c0.68,2.42,1.67,3.19,4.06,3.14c5.82-0.13,11.65,0.09,17.46-0.1c2.89-0.09,5.02,0.89,6.76,3.05c0,15.32,0,30.65,0,45.97
		c-1.74,2.16-3.88,3.14-6.76,3.05c-5.82-0.18-11.64,0.04-17.46-0.1c-2.39-0.05-3.38,0.72-4.07,3.14
		c-2.07,7.35-4.89,14.46-8.78,21.05c-1.48,2.52-1.11,4.07,0.91,5.98c4.36,4.1,8.55,8.38,12.72,12.68c3.56,3.67,3.61,6.67,0.04,10.3
		c-8.41,8.53-16.88,16.99-25.4,25.4c-3.63,3.58-6.67,3.57-10.32,0.05c-4.31-4.16-8.57-8.37-12.69-12.71
		c-1.88-1.99-3.43-2.49-5.98-0.98c-6.59,3.89-13.71,6.7-21.05,8.78c-2.42,0.68-3.19,1.67-3.14,4.07c0.13,5.82-0.09,11.65,0.1,17.46
		C154.13,252.04,153.14,254.18,150.98,255.92z M101.29,143.99c7.33,0,14.66-0.18,21.98,0.08c3.6,0.13,4.99-0.71,4.82-4.62
		c-0.32-7.48-0.29-14.99-0.01-22.48c0.14-3.8-0.79-5.14-4.88-5.07c-14.32,0.27-28.64,0.11-42.97,0.1c-6.02,0-6.14-0.06-3.65-5.61
		c9.09-20.28,24.88-31.53,46.84-34.01c3.52-0.4,4.93-1.2,4.67-4.97c-0.36-5.14-0.09-10.32-0.09-15.48c0-12.86,0-12.86-12.81-10.97
		c-57.89,8.55-91.79,69.91-67.37,123.08c14.55,31.68,40.12,48.69,74.87,51.9c3.95,0.37,5.71-0.49,5.41-4.96
		c-0.41-6.13-0.1-12.32-0.1-18.48c0-8.28-0.03-8.1-8.11-9.4c-21.15-3.41-35.59-15.35-43.98-34.93c-1.4-3.28-0.8-4.36,2.9-4.25
		C86.3,144.14,93.8,143.99,101.29,143.99z M183.96,60.38c0,14.11,0,27.39,0,40.68c0,11,0,10.8-10.79,11.05
		c-4.07,0.09-5.36-0.9-5.3-5.16c0.25-17.81,0.05-35.62,0.16-53.43c0.02-2.82-0.66-4.51-3.46-5.69c-7.39-3.1-14.99-5.24-22.84-6.9
		c-5.34-1.13-5.84,0.72-5.83,5.35c0.15,49.6,0.1,99.21,0.1,148.81c0,5.66,0.08,11.32-0.03,16.98c-0.06,2.68,0.37,3.81,3.61,3.3
		c8.44-1.32,16.51-3.65,24.39-6.9c3.06-1.27,4.15-2.92,4.11-6.3c-0.2-15.48-0.09-30.96-0.09-46.44c0-12.05,0-11.9,12.02-11.82
		c3.49,0.02,4.09,1.33,4.03,4.38c-0.16,8.32-0.06,16.64-0.06,24.97c0,7.23,0,14.45,0,22.16C225.16,162.96,227.73,96.21,183.96,60.38
		z"/>
	<path class="st1" d="M105.01,0.08c-2.15,1.74-3.15,3.87-3.05,6.76c0.19,5.48-0.16,10.98,0.14,16.45c0.17,3.19-0.78,4.76-3.9,5.56
		c-7.25,1.87-14.13,4.78-20.53,8.63c-2.46,1.48-3.75,0.79-5.45-0.99c-4.25-4.44-8.61-8.78-13.04-13.05
		c-3.63-3.51-6.68-3.51-10.31,0.07c-8.52,8.4-16.98,16.86-25.39,25.39c-3.58,3.63-3.54,6.63,0.02,10.29
		c4.4,4.53,8.87,8.99,13.41,13.39c1.5,1.45,2.06,2.6,0.81,4.64c-4.18,6.81-7.05,14.24-9.25,21.88c-0.73,2.55-1.96,2.97-4.18,2.94
		c-5.82-0.09-11.64,0.1-17.45-0.08c-2.89-0.09-5.02,0.9-6.76,3.05C0.08,71.28,0.13,37.55,0,3.82C-0.01,0.71,0.7-0.01,3.82,0
		C37.55,0.13,71.28,0.08,105.01,0.08z"/>
	<path class="st1" d="M255.92,105.02c-1.74-2.16-3.88-3.14-6.76-3.05c-5.82,0.18-11.64-0.04-17.46,0.1
		c-2.39,0.05-3.38-0.72-4.06-3.14c-2.11-7.51-5.07-14.74-8.99-21.5c-1.27-2.19-0.89-3.55,0.79-5.17c4.42-4.28,8.78-8.63,13.07-13.04
		c3.56-3.67,3.61-6.67,0.04-10.3c-8.41-8.53-16.88-16.99-25.4-25.4c-3.63-3.58-6.67-3.57-10.32-0.05
		c-4.31,4.16-8.57,8.37-12.69,12.71c-1.88,1.99-3.43,2.49-5.98,0.98c-6.59-3.89-13.71-6.7-21.05-8.78
		c-2.42-0.68-3.19-1.67-3.14-4.07c0.13-5.82-0.09-11.65,0.1-17.46c0.09-2.89-0.89-5.02-3.05-6.76c33.81,0,67.62,0.05,101.43-0.08
		c2.98-0.01,3.59,0.6,3.58,3.58C255.87,37.39,255.92,71.2,255.92,105.02z"/>
	<path class="st1" d="M150.98,255.92c2.16-1.74,3.14-3.88,3.05-6.76c-0.18-5.82,0.04-11.64-0.1-17.46
		c-0.05-2.39,0.72-3.38,3.14-4.07c7.35-2.07,14.46-4.89,21.05-8.78c2.56-1.51,4.1-1,5.98,0.98c4.12,4.34,8.38,8.56,12.69,12.71
		c3.65,3.52,6.69,3.53,10.32-0.05c8.53-8.41,17-16.88,25.4-25.4c3.57-3.63,3.52-6.62-0.04-10.3c-4.17-4.3-8.37-8.57-12.72-12.68
		c-2.02-1.91-2.4-3.46-0.91-5.98c3.89-6.59,6.7-13.71,8.78-21.05c0.68-2.42,1.67-3.19,4.07-3.14c5.82,0.13,11.65-0.09,17.46,0.1
		c2.89,0.09,5.02-0.89,6.76-3.05c0,33.81-0.05,67.62,0.08,101.43c0.01,2.98-0.6,3.59-3.58,3.58
		C218.61,255.87,184.79,255.92,150.98,255.92z"/>
	<path class="st1" d="M0.08,150.98c1.74,2.16,3.88,3.15,6.77,3.05c5.65-0.19,11.32,0.03,16.98-0.09c2.48-0.05,3.76,0.49,4.51,3.26
		c1.95,7.21,4.74,14.18,8.59,20.61c1.73,2.88,1.11,4.67-1.19,6.8c-4.28,3.95-8.34,8.14-12.39,12.33c-3.33,3.45-3.4,6.57-0.07,9.95
		c8.53,8.66,17.12,17.26,25.78,25.78c3.38,3.33,6.55,3.3,9.97,0.01c4.32-4.15,8.57-8.39,12.71-12.72c1.84-1.92,3.32-2.65,5.97-1.12
		c6.76,3.92,13.99,6.91,21.55,8.93c2.36,0.63,2.79,1.82,2.77,3.88c-0.06,5.83,0.11,11.66-0.07,17.48c-0.09,2.89,0.89,5.03,3.05,6.77
		c-33.73,0-67.46-0.05-101.19,0.08c-3.12,0.01-3.83-0.7-3.82-3.82C0.13,218.45,0.08,184.72,0.08,150.98z"/>
	<path class="st1" d="M101.29,143.99c-7.49,0-14.99,0.15-22.48-0.06c-3.69-0.11-4.3,0.97-2.9,4.25
		c8.39,19.58,22.83,31.52,43.98,34.93c8.08,1.3,8.11,1.12,8.11,9.4c0,6.16-0.31,12.34,0.1,18.48c0.3,4.48-1.46,5.33-5.41,4.96
		c-34.75-3.22-60.32-20.23-74.87-51.9C23.4,110.87,57.31,49.51,115.19,40.96C128,39.07,128,39.07,128,51.93
		c0,5.16-0.27,10.34,0.09,15.48c0.26,3.77-1.15,4.58-4.67,4.97c-21.96,2.48-37.75,13.73-46.84,34.01c-2.48,5.54-2.37,5.6,3.65,5.61
		c14.32,0.01,28.65,0.17,42.97-0.1c4.09-0.08,5.02,1.27,4.88,5.07c-0.27,7.48-0.31,15,0.01,22.48c0.17,3.91-1.22,4.75-4.82,4.62
		C115.95,143.81,108.62,143.99,101.29,143.99z"/>
	<path class="st1" d="M183.96,60.38c43.77,35.82,41.2,102.58,0,135.02c0-7.71,0-14.93,0-22.16c0-8.32-0.11-16.65,0.06-24.97
		c0.06-3.05-0.53-4.36-4.03-4.38c-12.02-0.08-12.02-0.23-12.02,11.82c0,15.48-0.11,30.96,0.09,46.44c0.04,3.38-1.05,5.04-4.11,6.3
		c-7.88,3.26-15.95,5.58-24.39,6.9c-3.24,0.51-3.67-0.62-3.61-3.3c0.12-5.66,0.03-11.32,0.03-16.98c0-49.6,0.06-99.21-0.1-148.81
		c-0.01-4.62,0.49-6.48,5.83-5.35c7.84,1.66,15.45,3.8,22.84,6.9c2.81,1.18,3.48,2.87,3.46,5.69c-0.11,17.81,0.09,35.62-0.16,53.43
		c-0.06,4.26,1.23,5.26,5.3,5.16c10.79-0.24,10.79-0.05,10.79-11.05C183.96,87.78,183.96,74.49,183.96,60.38z"/>
</g>
</svg>
