<?xml version="1.0" encoding="utf-8"?>
<!-- Generator: Adobe Illustrator 24.0.2, SVG Export Plug-In . SVG Version: 6.00 Build 0)  -->
<svg version="1.1" id="Layer_1" xmlns="http://www.w3.org/2000/svg" xmlns:xlink="http://www.w3.org/1999/xlink" x="0px" y="0px"
	 viewBox="0 0 512 512" style="enable-background:new 0 0 512 512;" xml:space="preserve">
<style type="text/css">
	.st0{display:none;fill:#FEFEFE;}
	.st1{fill:#FFFFFF;}
	.st2{display:none;fill:#FBFBFB;}
</style>
<g>
	<path class="st0" d="M77.07,95.9c0-5.69,0.07-11.38-0.05-17.06c-0.03-1.5,0.29-2.05,1.79-1.76c0.45,0.09,0.93,0.01,1.39,0.01
		c117.02,0,234.05,0.01,351.07-0.07c2.61,0,3.2,0.59,3.2,3.2c-0.08,117.02-0.08,234.03,0,351.05c0,2.61-0.59,3.2-3.2,3.2
		c-117.02-0.08-234.05-0.08-351.07,0c-2.61,0-3.2-0.59-3.2-3.2c0.08-109.7,0.07-219.4,0.07-329.11c2.3,4.94,6.45,7.34,11.41,9.2
		c13.54,5.08,26.92,10.56,40.4,15.78c2.01,0.78,3.06,1.68,3.48,4.01c5.17,28.74,10.5,57.44,15.77,86.16
		c5.59,30.43,11.15,60.86,16.77,91.28c1.07,5.81,5.56,9.46,11.49,9.67c1.66,0.06,3.33,0.01,5.35,0.01
		c-4.02,11.19-7.83,21.84-11.67,32.49c-3.5,9.71,0.47,15.29,10.9,15.3c1.78,0,3.56,0,5.67,0c-14.62,19.35-7.82,38.31,2.29,47.64
		c13.17,12.16,30.6,12.26,43.69,2.83c7.29-5.25,11.83-12.46,13.52-21.17c2.06-10.67-0.82-20.34-7.92-29.09c25.02,0,49.5,0,74.13,0
		c-13.97,18.62-8.25,36.78,1.89,46.95c11.53,11.57,29.54,13.28,43.1,4.17c8.52-5.72,13.62-13.89,14.97-24.04
		c1.34-10.04-1.62-19.09-8.36-27.31c4.08,0,7.46,0.15,10.81-0.03c5.34-0.28,9.27-4.32,9.38-9.36c0.11-4.88-3.53-8.92-8.73-9.59
		c-1.37-0.18-2.78-0.16-4.17-0.16c-34.94-0.01-69.89-0.01-104.83-0.01c-23.8,0-47.6-0.05-71.39,0.07c-2.96,0.02-3.19-0.72-2.24-3.22
		c2.76-7.24,5.46-14.51,7.89-21.87c0.9-2.73,2.11-3.66,5.07-3.65c55.37,0.1,110.75,0.08,166.12,0.08c8.62,0,11.85-2.37,14.46-10.54
		c9.43-29.41,18.87-58.83,28.3-88.24c6.04-18.84,12.12-37.67,18.11-56.52c2.71-8.54-1.85-15.84-10.23-16.22
		c-36.87-1.67-73.75-3.26-110.63-4.85c-34.79-1.5-69.58-2.96-104.37-4.43c-2.43-0.1-4.89-0.44-7.3-0.22
		c-6.37,0.57-10.66,5.44-10.53,11.63c0.14,6.17,4.7,10.84,11.08,11.13c25.28,1.15,50.56,2.28,75.84,3.36
		c40.59,1.74,81.18,3.42,121.77,5.15c2.71,0.11,5.41,0.35,8.31,0.54c-0.25,0.87-0.36,1.31-0.5,1.74
		c-12.95,40.44-25.92,80.87-38.78,121.33c-0.87,2.75-2.18,3.39-4.91,3.38c-43.53-0.09-87.07-0.06-130.6-0.06
		c-14.4,0-28.79-0.07-43.18,0.07c-2.38,0.02-3.25-0.75-3.57-2.96c-0.51-3.55-1.22-7.08-1.87-10.61
		c-6.84-37.26-13.69-74.53-20.53-111.79c-3.09-16.87-6.17-33.74-9.23-50.61c-0.89-4.9-3.27-8.56-8.08-10.45
		c-17.45-6.84-34.87-13.73-52.32-20.57c-4.21-1.65-8.13-1.09-11.81,1.64C79.28,91.67,78.57,94.05,77.07,95.9z"/>
	<path class="st1" d="M77.07,95.9c1.5-1.85,2.21-4.23,4.25-5.74c3.68-2.73,7.6-3.29,11.81-1.64c17.45,6.84,34.87,13.73,52.32,20.57
		c4.82,1.89,7.19,5.55,8.08,10.45c3.06,16.87,6.14,33.74,9.23,50.61c6.84,37.26,13.69,74.53,20.53,111.79
		c0.65,3.53,1.36,7.06,1.87,10.61c0.32,2.21,1.19,2.98,3.57,2.96c14.39-0.13,28.79-0.07,43.18-0.07c43.53,0,87.07-0.03,130.6,0.06
		c2.73,0.01,4.03-0.63,4.91-3.38c12.85-40.47,25.83-80.89,38.78-121.33c0.14-0.43,0.25-0.87,0.5-1.74c-2.9-0.19-5.6-0.42-8.31-0.54
		c-40.59-1.72-81.18-3.41-121.77-5.15c-25.28-1.08-50.56-2.21-75.84-3.36c-6.38-0.29-10.94-4.95-11.08-11.13
		c-0.14-6.19,4.16-11.06,10.53-11.63c2.41-0.22,4.86,0.12,7.3,0.22c34.79,1.47,69.58,2.93,104.37,4.43
		c36.88,1.59,73.75,3.18,110.63,4.85c8.38,0.38,12.94,7.68,10.23,16.22c-5.99,18.85-12.06,37.68-18.11,56.52
		c-9.43,29.41-18.87,58.82-28.3,88.24c-2.62,8.17-5.84,10.54-14.46,10.54c-55.37,0-110.75,0.03-166.12-0.08
		c-2.97-0.01-4.17,0.92-5.07,3.65c-2.43,7.36-5.13,14.63-7.89,21.87c-0.95,2.51-0.73,3.24,2.24,3.22c23.8-0.12,47.6-0.07,71.39-0.07
		c34.94,0,69.89,0,104.83,0.01c1.39,0,2.79-0.02,4.17,0.16c5.19,0.67,8.83,4.71,8.73,9.59c-0.11,5.04-4.05,9.07-9.38,9.36
		c-3.35,0.18-6.72,0.03-10.81,0.03c6.74,8.22,9.7,17.27,8.36,27.31c-1.35,10.15-6.45,18.32-14.97,24.04
		c-13.55,9.11-31.57,7.4-43.1-4.17c-10.14-10.18-15.86-28.34-1.89-46.95c-24.63,0-49.11,0-74.13,0c7.1,8.76,9.98,18.42,7.92,29.09
		c-1.68,8.71-6.23,15.91-13.52,21.17c-13.09,9.44-30.52,9.33-43.69-2.83c-10.11-9.33-16.91-28.29-2.29-47.64c-2.1,0-3.89,0-5.67,0
		c-10.43-0.01-14.4-5.59-10.9-15.3c3.84-10.65,7.65-21.3,11.67-32.49c-2.02,0-3.69,0.05-5.35-0.01c-5.94-0.21-10.42-3.86-11.49-9.67
		c-5.63-30.42-11.18-60.85-16.77-91.28c-5.28-28.72-10.61-57.42-15.77-86.16c-0.42-2.33-1.48-3.23-3.48-4.01
		c-13.48-5.22-26.87-10.7-40.4-15.78c-4.95-1.86-9.11-4.26-11.41-9.2C77.07,100.08,77.07,97.99,77.07,95.9z M338.52,373.73
		c-8.41-0.07-15.39,6.74-15.46,15.08c-0.07,8.28,6.97,15.32,15.3,15.3c8.25-0.02,15.09-6.74,15.23-14.97
		C353.72,380.75,346.94,373.8,338.52,373.73z M212.72,373.72c-8.49-0.09-15.33,6.56-15.44,15.01c-0.1,8.39,6.72,15.33,15.12,15.39
		c8.23,0.06,15.07-6.64,15.22-14.9C227.79,380.72,221.15,373.82,212.72,373.72z"/>
	<path class="st2" d="M338.52,373.73c8.42,0.07,15.2,7.02,15.06,15.42c-0.14,8.23-6.97,14.95-15.23,14.97
		c-8.33,0.02-15.37-7.02-15.3-15.3C323.13,380.46,330.11,373.65,338.52,373.73z"/>
	<path class="st2" d="M212.72,373.72c8.42,0.09,15.07,7,14.91,15.5c-0.15,8.26-6.99,14.96-15.22,14.9
		c-8.41-0.06-15.23-7-15.12-15.39C197.39,380.28,204.23,373.63,212.72,373.72z"/>
</g>
</svg>
