<?xml version="1.0" encoding="utf-8"?>
<!-- Generator: Adobe Illustrator 24.0.2, SVG Export Plug-In . SVG Version: 6.00 Build 0)  -->
<svg version="1.1" id="Layer_1" xmlns="http://www.w3.org/2000/svg" xmlns:xlink="http://www.w3.org/1999/xlink" x="0px" y="0px"
	 viewBox="0 0 251.44 261" style="enable-background:new 0 0 251.44 261;" xml:space="preserve">
<style type="text/css">
	.st0{fill-rule:evenodd;clip-rule:evenodd;fill:#535353;}
	.st1{fill-rule:evenodd;clip-rule:evenodd;fill:#929292;}
	.st2{fill-rule:evenodd;clip-rule:evenodd;fill:#C9C9C9;}
</style>
<polygon class="st0" points="127.92,106.2 247.02,62.1 181.27,25.34 80.1,71.75 80.1,71.75 50.18,60.17 149.57,11.93 132.75,3.25 
	4.42,62.02 83.48,90.3 176.86,47.43 194.5,60.68 105.89,98.32 "/>
<polygon class="st1" points="127.92,106.2 247.02,62.02 247.02,92.95 149.98,128.29 149.98,154.8 198.5,141.54 198.5,168.05 
	149.98,185.73 149.98,216.65 247.02,181.31 247.02,207.82 127.92,256.41 "/>
<polygon class="st2" points="4.42,62.02 127.92,106.2 127.92,137.13 26.48,97.36 26.48,128.29 127.92,163.64 127.92,256.41 
	4.42,207.82 4.42,181.31 101.46,216.65 101.46,185.73 4.42,150.38 "/>
</svg>
